HIERARCHY
ROOT Hips
{
	OFFSET -14.64140 90.27770 -84.91600
	CHANNELS 6 Xposition Yposition Zposition Zrotation Xrotation Yrotation
	JOINT Spine
	{
		OFFSET 0.00000 13.20850 -1.60436
		CHANNELS 3 Zrotation Xrotation Yrotation
		JOINT Spine1
		{
			OFFSET 0.00000 8.61716 0.00000
			CHANNELS 3 Zrotation Xrotation Yrotation
			JOINT Spine2
			{
				OFFSET 0.00000 8.61717 0.00000
				CHANNELS 3 Zrotation Xrotation Yrotation
				JOINT Spine3
				{
					OFFSET 0.00000 8.61717 0.00000
					CHANNELS 3 Zrotation Xrotation Yrotation
					JOINT Neck
					{
						OFFSET 0.00000 11.07920 1.10792
						CHANNELS 3 Zrotation Xrotation Yrotation
						JOINT Neck1
						{
							OFFSET 0.00000 7.08032 0.00000
							CHANNELS 3 Zrotation Xrotation Yrotation
							JOINT Head
							{
								OFFSET 0.00000 7.08031 0.00000
								CHANNELS 3 Zrotation Xrotation Yrotation
								End site
								{
									OFFSET 0.00000 0.00000 0.00000
								}
							}
						}
					}
					JOINT RightShoulder
					{
						OFFSET -0.01000 7.91373 5.19711
						CHANNELS 3 Zrotation Xrotation Yrotation
						JOINT RightArm
						{
							OFFSET -18.41580 0.00000 0.00000
							CHANNELS 3 Zrotation Xrotation Yrotation
							JOINT RightForeArm
							{
								OFFSET -29.11090 0.00000 0.00000
								CHANNELS 3 Zrotation Xrotation Yrotation
								JOINT RightHand
								{
									OFFSET -24.65040 0.00000 0.00000
									CHANNELS 3 Zrotation Xrotation Yrotation
									JOINT RightHandThumb1
									{
										OFFSET -5.35114 -0.85590 3.97906
										CHANNELS 3 Zrotation Xrotation Yrotation
										JOINT RightHandThumb2
										{
											OFFSET -4.52789 0.00000 0.00000
											CHANNELS 3 Zrotation Xrotation Yrotation
											JOINT RightHandThumb3
											{
												OFFSET -2.46976 0.00000 0.00000
												CHANNELS 3 Zrotation Xrotation Yrotation
												End site
												{
													OFFSET 0.00000 0.00000 0.00000
												}
											}
										}
									}
									JOINT RightHandIndex1
									{
										OFFSET -14.26970 0.00000 2.88139
										CHANNELS 3 Zrotation Xrotation Yrotation
										JOINT RightHandIndex2
										{
											OFFSET -5.48836 0.00000 0.00000
											CHANNELS 3 Zrotation Xrotation Yrotation
											JOINT RightHandIndex3
											{
												OFFSET -3.01859 0.00000 0.00000
												CHANNELS 3 Zrotation Xrotation Yrotation
												End site
												{
													OFFSET 0.00000 0.00000 0.00000
												}
											}
										}
									}
									JOINT RightHandMiddle1
									{
										OFFSET -14.26970 0.00000 -0.09147
										CHANNELS 3 Zrotation Xrotation Yrotation
										JOINT RightHandMiddle2
										{
											OFFSET -6.17441 0.00000 0.00000
											CHANNELS 3 Zrotation Xrotation Yrotation
											JOINT RightHandMiddle3
											{
												OFFSET -3.56743 0.00000 0.00000
												CHANNELS 3 Zrotation Xrotation Yrotation
												End site
												{
													OFFSET 0.00000 0.00000 0.00000
												}
											}
										}
									}
									JOINT RightHandRing1
									{
										OFFSET -12.69180 0.00000 -3.06433
										CHANNELS 3 Zrotation Xrotation Yrotation
										JOINT RightHandRing2
										{
											OFFSET -5.62556 0.00000 0.00000
											CHANNELS 3 Zrotation Xrotation Yrotation
											JOINT RightHandRing3
											{
												OFFSET -3.56744 0.00000 0.00000
												CHANNELS 3 Zrotation Xrotation Yrotation
												End site
												{
													OFFSET 0.00000 0.00000 0.00000
												}
											}
										}
									}
									JOINT RightHandPinky1
									{
										OFFSET -11.11390 0.00000 -6.03719
										CHANNELS 3 Zrotation Xrotation Yrotation
										JOINT RightHandPinky2
										{
											OFFSET -4.52789 0.00000 0.00000
											CHANNELS 3 Zrotation Xrotation Yrotation
											JOINT RightHandPinky3
											{
												OFFSET -2.46976 0.00000 0.00000
												CHANNELS 3 Zrotation Xrotation Yrotation
												End site
												{
													OFFSET 0.00000 0.00000 0.00000
												}
											}
										}
									}
								}
							}
						}
					}
					JOINT LeftShoulder
					{
						OFFSET 0.01000 7.91373 5.19711
						CHANNELS 3 Zrotation Xrotation Yrotation
						JOINT LeftArm
						{
							OFFSET 18.41580 0.00000 0.00000
							CHANNELS 3 Zrotation Xrotation Yrotation
							JOINT LeftForeArm
							{
								OFFSET 29.11090 0.00000 0.00000
								CHANNELS 3 Zrotation Xrotation Yrotation
								JOINT LeftHand
								{
									OFFSET 24.65040 0.00000 0.00000
									CHANNELS 3 Zrotation Xrotation Yrotation
									JOINT LeftHandThumb1
									{
										OFFSET 5.35114 -0.85590 3.97906
										CHANNELS 3 Zrotation Xrotation Yrotation
										JOINT LeftHandThumb2
										{
											OFFSET 4.52789 0.00000 0.00000
											CHANNELS 3 Zrotation Xrotation Yrotation
											JOINT LeftHandThumb3
											{
												OFFSET 2.46977 0.00000 0.00000
												CHANNELS 3 Zrotation Xrotation Yrotation
												End site
												{
													OFFSET 0.00000 0.00000 0.00000
												}
											}
										}
									}
									JOINT LeftHandIndex1
									{
										OFFSET 14.26970 0.00000 2.88139
										CHANNELS 3 Zrotation Xrotation Yrotation
										JOINT LeftHandIndex2
										{
											OFFSET 5.48836 0.00000 0.00000
											CHANNELS 3 Zrotation Xrotation Yrotation
											JOINT LeftHandIndex3
											{
												OFFSET 3.01859 0.00000 0.00000
												CHANNELS 3 Zrotation Xrotation Yrotation
												End site
												{
													OFFSET 0.00000 0.00000 0.00000
												}
											}
										}
									}
									JOINT LeftHandMiddle1
									{
										OFFSET 14.26970 0.00000 -0.09147
										CHANNELS 3 Zrotation Xrotation Yrotation
										JOINT LeftHandMiddle2
										{
											OFFSET 6.17440 0.00000 0.00000
											CHANNELS 3 Zrotation Xrotation Yrotation
											JOINT LeftHandMiddle3
											{
												OFFSET 3.56744 0.00000 0.00000
												CHANNELS 3 Zrotation Xrotation Yrotation
												End site
												{
													OFFSET 0.00000 0.00000 0.00000
												}
											}
										}
									}
									JOINT LeftHandRing1
									{
										OFFSET 12.69180 0.00000 -3.06433
										CHANNELS 3 Zrotation Xrotation Yrotation
										JOINT LeftHandRing2
										{
											OFFSET 5.62556 0.00000 0.00000
											CHANNELS 3 Zrotation Xrotation Yrotation
											JOINT LeftHandRing3
											{
												OFFSET 3.56744 0.00000 0.00000
												CHANNELS 3 Zrotation Xrotation Yrotation
												End site
												{
													OFFSET 0.00000 0.00000 0.00000
												}
											}
										}
									}
									JOINT LeftHandPinky1
									{
										OFFSET 11.11390 0.00000 -6.03719
										CHANNELS 3 Zrotation Xrotation Yrotation
										JOINT LeftHandPinky2
										{
											OFFSET 4.52789 0.00000 0.00000
											CHANNELS 3 Zrotation Xrotation Yrotation
											JOINT LeftHandPinky3
											{
												OFFSET 2.46976 0.00000 0.00000
												CHANNELS 3 Zrotation Xrotation Yrotation
												End site
												{
													OFFSET 0.00000 0.00000 0.00000
												}
											}
										}
									}
								}
							}
						}
					}
					JOINT pCube4
					{
						OFFSET 0.00000 10.91090 1.10792
						CHANNELS 3 Zrotation Xrotation Yrotation
						End site
						{
							OFFSET 0.00000 0.00000 0.00000
						}
					}
				}
			}
		}
	}
	JOINT RightUpLeg
	{
		OFFSET -9.98441 0.00000 0.00000
		CHANNELS 3 Zrotation Xrotation Yrotation
		JOINT RightLeg
		{
			OFFSET 0.00000 -42.11790 0.00000
			CHANNELS 3 Zrotation Xrotation Yrotation
			JOINT RightFoot
			{
				OFFSET 0.00000 -45.00020 -0.00001
				CHANNELS 3 Zrotation Xrotation Yrotation
				JOINT RightForeFoot
				{
					OFFSET 0.00000 -3.74820 0.00000
					CHANNELS 3 Zrotation Xrotation Yrotation
					JOINT RightToeBase
					{
						OFFSET 0.00000 0.06325 14.43120
						CHANNELS 3 Zrotation Xrotation Yrotation
						End site
						{
							OFFSET 0.00000 0.00000 0.00000
						}
					}
				}
			}
		}
	}
	JOINT LeftUpLeg
	{
		OFFSET 9.98441 0.00000 0.00000
		CHANNELS 3 Zrotation Xrotation Yrotation
		JOINT LeftLeg
		{
			OFFSET 0.00000 -42.11800 0.00000
			CHANNELS 3 Zrotation Xrotation Yrotation
			JOINT LeftFoot
			{
				OFFSET 0.00000 -45.00070 0.00000
				CHANNELS 3 Zrotation Xrotation Yrotation
				JOINT LeftForeFoot
				{
					OFFSET 0.00000 -3.74824 0.00000
					CHANNELS 3 Zrotation Xrotation Yrotation
					JOINT LeftToeBase
					{
						OFFSET 0.00000 0.06325 14.43110
						CHANNELS 3 Zrotation Xrotation Yrotation
						End site
						{
							OFFSET 0.00000 0.00000 0.00000
						}
					}
				}
			}
		}
	}
}
MOTION
Frames: 4
Frame Time: 0.050000
0.021089554834455196 0.007616538307980808 -0.009308333413365042 -0.02814910922503744 -0.017316004781755084 0.04172216263032745 5.92474351568306 5.149468529898417 -2.2249403163707187 -0.7247917170229813 3.648201991028464 0.39515452715708094 -0.2849117508325489 -0.9187998242576905 -0.2732242619345513 -1.2435898252304738 -0.4818547068546855 -0.2817963195997133 -1.401467367057989 13.164625483282153 2.537542816056675 0.29820894976081885 -1.119691913988002 8.036967337430674 -0.43212071798357604 -18.28305092210079 0.6572892661597044 -10.8503227863533 3.934392822030817 -18.30563459808583 85.16437539969982 -8.400051741822022 -0.25685343697843643 28.20624959670926 6.049950146777521 82.68499370115363 9.12345173784447 -0.4778467100184447 -4.579326402699125 4.486675907808416 -0.11868578420068589 -1.6308318522550564 0.030737667076284857 -0.04693227162481703 -56.243214589015736 -0.03079222864214527 -0.008719516715975787 -56.26065231824549 -38.75657958790003 -0.014822991725243035 0.04088731899255146 -0.04289795518797912 -0.02148071114359638 0.024963214087788406 0.026265788704333243 0.032478339718985665 -0.04461487098444302 -36.6811332712792 0.0296770568850472 -0.02954677928992448 -0.029551701769602066 -0.0318721275236248 -0.008403365083846037 -0.024128240647620987 -0.006620075419149153 -0.01598476204719799 -19.73226609074094 -0.000942247317555359 -0.004531899611143684 -0.01509761283175476 -0.04975133622764325 0.009758891303693427 -0.03824344679703556 -0.008834218191037023 0.01226267339640441 24.048543083460707 -0.029291260921036243 -0.030927242867147358 28.822400142327485 -0.043394387558987585 -0.011716250197287118 28.90526589094084 0.04103100719373363 0.004006980215853916 13.67283034779635 3.1040705423225763 14.771954743945356 -77.57478934679334 12.79835494216522 -19.88534374169293 -28.338350530025444 15.704924808790288 -70.29998808413782 -24.609172520709905 -4.118076021957468 3.3466086056972197 -0.4886195105711965 0.02917498994368215 -8.130295562462786 0.0037399908505442022 -0.011268309158525742 44.59291394314179 -0.006559953458273617 0.010347701045988677 44.53884494426058 12.439801633036785 0.016247221907037836 -0.01273168670204977 -0.016428912455797962 0.008217982160726531 0.044611138890898024 0.020907209976398153 -0.04573914337951741 -0.03567478772755907 11.119838387123176 -0.01041246363978114 0.04367884898533892 -0.0026080596425513657 0.037998103420034686 0.029825110734034002 0.04436385913930458 0.0055906842515605236 -0.0054369624185533994 4.782394002484893 0.04676406656617146 0.01538466372249291 0.045929146116526355 -0.014090362799078802 0.00030007205772045637 0.018416441203975422 0.0019337839589434603 -0.01554731100179356 -5.5970668517189015 -0.010296008387421667 -0.010025141563174909 -6.70760308611702 -0.015350147693158067 -0.04494873416495196 -6.725602766604386 0.042946871649514766 -0.013923765061269482 -0.004523122659561877 0.003763329942960478 -0.003696747557533937 8.010345435021518 3.4551114255744086 -19.23469405388444 0.01524783167603084 10.382007815180893 0.0052077125155101985 -5.61745191282836 -15.697682174131419 3.146946579970115 -0.0032383930541827312 0.016585400866868702 0.009841141538123287 -0.03261705277026009 4.697319446193902 0.015621979418441585 12.497905818676633 -8.223232649368907 6.876951261716014 0.009100565380067463 46.37082040831441 -0.03573921608075145 -4.322638461863481 -14.754827485102464 -3.8027466446603375 -0.02121814316893537 0.04711432782473884 0.00969621423707579 0.004957357131493886 -10.773766610909142 0.00532997183063436 
-0.02118553072930519 0.007074814631883058 -0.023201195667068412 0.03190360679017664 -0.042791923605526756 0.028722338174304935 5.819673973992473 5.261824480302099 -2.2159438803953497 -0.723684508422597 3.6074701975024293 0.3078720554649099 -0.3227081905449211 -0.9348196012767618 -0.29833434769665557 -1.2103002778007925 -0.5106264213037607 -0.30101018512856265 -1.2938870738874413 12.858682497504281 2.1955061218237173 0.21857600790598022 -1.1565996110418917 7.348505876794846 -0.3625234871321702 -18.405156659282476 0.5528307380352859 -10.529379280789838 3.907551154623428 -18.21643724062106 85.20990893166363 -7.893904759190597 -0.9998514160370644 27.780838474957058 6.9727216969879 81.59755730764519 8.833142202443169 -0.4882074457982253 -4.489372060612751 4.571913325783799 -0.08944790823114934 -1.5980881933252093 0.003565190982822797 -0.012639196243303757 -56.24348349447204 -0.01578227197141459 0.048331145667718026 -56.257296646977125 -38.73567767521501 0.028397268603691392 0.005459704912687063 0.005093776984582861 0.03408248479062586 -0.030090192297422352 -0.02051314521538879 0.01940652617750685 -0.029853371475925206 -36.68605917373378 0.01536164416004417 0.032654550333459625 0.004622479668113049 -0.0037893079006452775 -0.007646550153716453 -0.005507935357819029 -0.007635857177655119 0.044771782805850834 -19.793579303291825 -0.030963566030562512 -0.03246948908804416 0.04498732310281421 0.022473918956879665 -0.01327351774524801 0.03178366768534166 0.0026521826243351048 0.003431355571898809 24.100261500505727 0.00036258330700958473 -0.018841598552506455 28.834933729284717 -0.03877590278750648 0.011576561869240828 28.889770651405446 0.043357549490040156 0.02913435550097385 13.30642176674787 3.1083382143455083 14.639374342656026 -77.21354119265911 13.96839139283429 -19.304791211619428 -26.111051751720293 16.673704028252104 -68.42425457712186 -24.689938734629557 -4.197086412328628 3.555352868247374 -0.47856539638803186 0.09404676665980742 -8.086180267298818 0.030641951672587854 0.03394687064169349 44.61055024543439 -0.04727949364048667 -0.023245749153265542 44.59493267104536 12.41177960852265 0.0016444586272245463 0.002137749166476402 -0.00011767150656394593 -0.024613772358780865 -0.026689164317135187 -0.004231746289800371 -0.018982100646952316 -0.034072987162870036 11.147533133986776 0.00923362664714465 -0.029630533719030714 -0.0184054470948621 -0.01193421247752682 -0.02451321202567579 0.0014362635802164874 0.007666189361025017 0.024315125976934537 4.74483948723613 0.0036960654507762645 0.012171198391543559 -0.0021951741289597993 0.007696481223587559 0.027318139153724972 0.010439529047474234 0.036980358253351546 0.031109100480096463 -5.570845160119616 0.045717743943257116 -0.04656461635411337 -6.741480559663073 0.014318864418044542 0.01824276494779268 -6.718470621862908 -0.023246273431868306 -0.0010046110184557524 -0.008542462727653138 0.039971186519622386 -0.021898105816309202 8.065984487384002 3.4931616819728144 -19.234054872462416 0.011615638952953559 10.428729712024769 0.007062775830018485 -5.660374293597724 -15.656532678961684 3.2050119303533737 0.030984579077049136 0.03249884572632173 0.026789308474756367 -0.003198419583883382 4.692418843954468 -0.027927604933355256 12.473665120240556 -8.26733520608413 6.860987098213586 -0.0068438472261041754 46.356844613376886 -0.03482916844129029 -4.282202330070141 -14.762648455085769 -3.824702641611263 0.010453527774107874 -0.03204689626760602 0.02155820596725081 -0.04033953346615327 -10.742807992896223 -0.0031767303426355996 
-0.048269970667605425 0.0013734068457794775 -0.014046790709552918 -0.049188594467029535 0.037822288721353375 -0.005825860082549551 5.470684867962316 5.321256041316575 -2.2162348280885773 -0.7546169500989817 3.591756474224047 0.36407926184230127 -0.3113681396026892 -0.8341191602766036 -0.28264351046665026 -1.155655790765143 -0.47802435830476425 -0.3206088287249821 -1.2286914166135976 12.612095784817871 1.956487241638384 0.2284310381431145 -1.2568151761400652 6.541636150082338 -0.24289508364472503 -18.396621461880528 0.5256946355814776 -10.216104278058847 3.815716100359066 -18.01039191062019 85.00602310791999 -7.115780263625468 -1.6145560015665392 26.57608024930059 8.272615589241852 80.20394933447187 8.590012651086171 -0.49100903372574584 -4.307427629126824 4.5476457088233095 -0.10430582396334635 -1.5855310899155628 -0.03224395094359341 -0.0379404820780862 -56.19226098231599 -0.0031814950804566196 -0.02797139946103934 -56.256182818597395 -38.773912207278656 0.04944419200657664 -0.03709506026733071 -0.00028480231498548254 0.011106962384417747 -0.036691665575370416 0.015012473919869932 0.0126249171483381 -0.0017153735153690526 -36.74313873995034 -0.038809298976348966 -0.012769032406858002 -0.032822047067284844 -0.04988889592175505 -0.02837176820485165 -0.012284652143016089 -0.02409928561829888 0.03728675902473539 -19.72140028958095 0.015733385025845065 -0.04001319069894788 -0.04044685827712052 0.01881751959944327 0.004908770037483493 -0.026595920119467032 0.0030399341718763753 -0.03324788731276561 24.07722983630279 -0.0011808651248633427 0.022268901546414817 28.91142503194885 -0.022910559790304277 0.0350309601404876 28.857602571874672 -0.005021132541720374 -0.010298431058347903 12.774959552484164 3.0066023000171826 14.459065713310384 -76.633427060458 14.927218092056224 -18.410997489328526 -22.506494532047643 17.56855278923647 -65.03798262767027 -24.603110057661198 -3.9144657422402505 3.599912562412992 -0.44870137210620986 0.088402378617436 -8.11960601005911 -0.03845417028791937 -0.014475682057500605 44.54756292742829 -0.011251860174693925 -0.005545472429821832 44.56417395359636 12.4200876570981 -0.017780668446123176 -0.025402563497290573 0.004142851775633077 -0.03603859634327555 -0.023332874603179992 0.04171185677145658 0.003406542001606699 0.008695935062061722 11.102651538797389 -0.014481201592971862 0.01505027349329225 -0.030190124605234816 -0.016564135241911054 0.04260659627756881 -0.03201790926823408 -0.011226948341246502 -0.015144935165420342 4.7517936002831025 -0.046133288256375075 0.01533291835556431 0.03041495206895659 0.04955728008783747 -0.026321831569344555 0.023690170876587664 0.04144885680625628 0.0006864129790214771 -5.6123897313435185 0.02600707520030741 -0.014016655667252405 -6.672703403394175 -0.033432145372290535 0.028619024472706797 -6.6765304108103605 -0.03683927200523903 -0.041242213822598364 -0.001969607032350424 -0.010304527301792252 0.015129273954001756 8.02240625346133 3.4909252653661182 -19.21055467849536 -0.030619616716885067 10.380081372375798 -0.015443579043219718 -5.594596129225797 -15.648370294437408 3.2084796744348485 -0.039516265974536814 -0.02921036021818511 -0.04142432033243503 -0.046932036017755294 4.719707389178561 0.013293731517918852 12.478024038201333 -8.268243022806194 6.854123286355557 0.008043973452245404 46.33853525504311 -0.01058250209449222 -4.290111130270329 -14.748198059486143 -3.874174311037468 0.009223174612492358 0.03690414557938649 0.040523097006039684 -0.03710042809849854 -10.748970777189214 0.032935975726196665 
0.029048000861653836 0.02937625473710185 -0.00609983301755609 0.007554394727811008 -0.028249601291661004 -0.04011449094321238 5.1246661052122064 5.378057908709726 -2.1325332414873372 -0.7891458614402741 3.6564935603588893 0.3557882126079594 -0.42422363437504834 -0.7657898344441469 -0.2895385538133963 -1.127214323474182 -0.39960224933927135 -0.3595875064654043 -1.1936089043132605 12.399478479920836 1.7632170270455656 0.24962255093251032 -1.3169050322464502 5.94441666438958 -0.17792892227602575 -18.44310736220213 0.4858053190335176 -9.818269087584138 3.696763854897815 -17.851416694216358 84.82379713389749 -5.911419126569451 -2.3526432672243365 24.02905159098059 9.794499519671515 77.92743430161119 8.501703852343226 -0.38972661500230665 -4.012080137740082 4.545628314870647 -0.1567344167479338 -1.562678753697244 0.0072709866504674 0.001011378949841736 -56.271376497167864 0.011703696265631848 0.0031342581478747546 -56.245703547958165 -38.748667699691396 -0.02164934181986542 -0.0021396560855921234 -0.043726267440684724 0.027309272697566955 -0.007318158297454866 -0.007220001309735747 -0.0158441556214624 0.046144656379609295 -36.6964539278346 0.018324476264331757 0.002647713381808106 0.015133976617609065 0.039856586020733324 -0.02321781012196953 0.0058283764553751895 0.014711526433104749 -0.0029169828501914128 -19.70994687108418 -0.006658635200722129 0.03561117448425713 0.020786298749477117 -0.035959598204529646 0.033380958848154056 -0.014486112045700422 -0.0023412173438301215 0.03820655906438462 24.067858710371368 0.023700464982077046 -0.04599581552793922 28.837415503463166 0.01355242769490442 -0.029552127318559013 28.854895777380378 -0.04911778525331219 0.013389102855384378 12.226955336716008 2.9349046282080766 14.375196559201955 -75.7614219010165 15.822094453360457 -17.798438946829663 -18.303234348470273 18.726561125233037 -61.57124784882276 -24.588977447044293 -3.7904997981881077 3.76819253210404 -0.4612117621479141 0.10639504675932175 -8.146061345006974 0.0017832025654689158 0.024603001851841846 44.56672192696114 0.021248590299298462 0.012119620682769122 44.59325967201283 12.48675901935438 -0.015933658874656417 -0.027344135504453707 -0.008619042021528274 0.0245554677039198 -0.008798235196096122 -0.013002859685820415 -0.039257246068069386 0.01028959174978507 11.107146325356776 -0.03244604505991379 0.01103137678984942 0.03421353905066032 -0.02418303674391924 0.04906839580974657 -0.011953463825814347 0.02215143494514979 -0.004173053179630537 4.763422431896745 -0.0470809954392981 -0.04220619222609258 0.0030951120072856128 0.038351136682572284 0.03450273128020343 -0.015877143821120317 -0.033668572654676494 0.035070558526614753 -5.586302549371265 0.049276365324276525 -0.0003089964997985588 -6.6889419373092975 -0.028136717675328847 0.030985952092292716 -6.706070246946448 0.01872552696880813 -0.012310402620441255 -0.008373402165398232 -0.00441849361863662 -0.0142547551422237 8.051168216543306 3.4809391051849397 -19.18593173211126 -0.001362309751835718 10.368504388196587 0.049272034686311264 -5.590951322936486 -15.641328197392452 3.237926951865141 -0.010632256394507458 0.004499349054688935 -0.0021386143309114077 -0.02298363947745429 4.735566544469892 -0.029615295942514292 12.463716255350432 -8.230528620444685 6.887217426205558 -0.023408522055687452 46.41799591036356 -0.01122152323365022 -4.319960687676163 -14.75383275258658 -3.8554205567800786 -0.018446893338815044 0.02570757400260054 -0.025548983868827917 0.023400021307141868 -10.74063272450251 0.0410905063220034 
